<svg width="64" height="64" viewBox="0 0 64 64" xmlns="http://www.w3.org/2000/svg">
  <defs>
    <linearGradient id="appleGradient" x1="0%" y1="0%" x2="100%" y2="100%">
      <stop offset="0%" style="stop-color:#A8A8A8;stop-opacity:1" />
      <stop offset="100%" style="stop-color:#4A4A4A;stop-opacity:1" />
    </linearGradient>
  </defs>
  <rect width="64" height="64" rx="12" fill="url(#appleGradient)"/>
  <path d="M32 8c-2.5 0-4.8 1.2-6.2 3.1-1.2 1.6-2.2 3.8-1.9 6 2.6 0.2 5.2-1.3 6.8-3.1 1.4-1.6 2.6-3.9 2.3-6.2-0.3 0-0.7 0.1-1 0.2z" fill="white"/>
  <path d="M38.5 22.5c-3.2 0-5.7 1.5-7.2 1.5-1.6 0-4.1-1.4-6.8-1.4-3.5 0-6.7 2-8.5 5.1-3.6 6.3-0.9 15.6 2.6 20.7 1.7 2.5 3.7 5.3 6.4 5.2 2.6-0.1 3.6-1.7 6.7-1.7 3.1 0 4 1.6 6.7 1.6 2.8-0.1 4.5-2.5 6.2-5 2-2.9 2.8-5.7 2.8-5.8-0.1 0-5.4-2.1-5.4-8.3 0-5.2 4.2-7.7 4.4-7.8-2.4-3.5-6.1-3.9-7.4-4-0.2 0-0.3 0-0.5 0.1z" fill="white"/>
</svg>